<svg width="160" height="31" viewBox="0 0 160 31" fill="none" xmlns="http://www.w3.org/2000/svg">
<g filter="url(#filter0_dd_5_39)">
<path d="M27.9 3H11.9C7.53695 3 4 6.53695 4 10.9V26.9C4 31.2631 7.53695 34.8 11.9 34.8H27.9C32.2631 34.8 35.8 31.2631 35.8 26.9V10.9C35.8 6.53695 32.2631 3 27.9 3Z" fill="white"/>
<path d="M27.9 3H11.9C7.53695 3 4 6.53695 4 10.9V26.9C4 31.2631 7.53695 34.8 11.9 34.8H27.9C32.2631 34.8 35.8 31.2631 35.8 26.9V10.9C35.8 6.53695 32.2631 3 27.9 3Z" fill="url(#paint0_linear_5_39)"/>
<path d="M27.9 3H11.9C7.53695 3 4 6.53695 4 10.9V26.9C4 31.2631 7.53695 34.8 11.9 34.8H27.9C32.2631 34.8 35.8 31.2631 35.8 26.9V10.9C35.8 6.53695 32.2631 3 27.9 3Z" stroke="#D0D5DD" stroke-width="0.2"/>
<path d="M19.2546 14.0828C23.6105 12.3504 28.3742 13.7185 30.5373 15.8133C31.006 16.2671 31.4041 16.7275 31.745 17.1852C31.9394 16.1107 31.9552 15.0405 31.7681 14.0055C31.0847 10.2265 27.5195 8.0856 24.3233 9.19148C21.1415 10.2924 19.9005 12.4321 19.9005 12.4321C19.9005 12.4321 18.6595 10.2924 15.4777 9.19148C12.2812 8.0856 8.71602 10.2267 8.03279 14.0055C7.52841 16.7944 8.48355 19.8392 10.5103 22.5298C10.9372 22.6732 11.3847 22.7809 11.8586 22.8431C14.6978 23.2163 15.7184 22.457 16.9178 21.9486C17.7142 21.6113 18.3134 21.9942 18.2843 22.2626C18.2392 22.6786 16.6693 23.3895 17.006 23.5388C18.3351 24.1285 19.9718 24.1334 21.2053 23.08C22.738 21.7712 23.3114 22.6659 23.3114 22.6659C23.3114 22.6659 22.5502 24.6076 20.2581 25.5717C18.3457 26.3761 16.3419 26.5743 14.5107 26.3683C16.09 27.4846 17.9035 28.4204 19.9005 29.0883C25.6099 27.1784 29.8276 23.0871 31.3145 18.8096C30.3072 17.8157 29.0716 17.1996 27.5988 16.9763C24.7674 16.5471 23.7322 17.2863 22.5228 17.7708C21.7198 18.0926 21.1285 17.6978 21.163 17.4299C21.2161 17.0148 22.7999 16.3351 22.4661 16.179C21.149 15.5633 19.5125 15.526 18.2585 16.5549C16.7003 17.8332 16.1446 16.9274 16.1446 16.9274C16.1446 16.9274 16.9438 15.0015 19.2546 14.0828ZM18.1709 19.4052H19.2709V18.3052H20.5296V19.4052H21.6296V20.6639H20.5296V21.7639H19.2709V20.6639H18.1709V19.4052Z" fill="url(#paint1_linear_5_39)"/>
<path d="M18.1709 19.4052H19.2709V18.3052H20.5296V19.4052H21.6295V20.6639H20.5378C22.1597 21.4834 25.1383 22.7027 28.7177 23.2451C29.8956 21.8517 30.7813 20.3428 31.3143 18.8096C30.3069 17.8157 29.0713 17.1996 27.5986 16.9763C24.7672 16.547 23.7319 17.2863 22.5226 17.7708C21.7196 18.0926 21.1282 17.6978 21.1627 17.4299C21.2159 17.0148 22.7997 16.3351 22.4659 16.179C21.1488 15.5633 19.5123 15.526 18.2583 16.5548C16.7 17.8332 16.1443 16.9274 16.1443 16.9274C16.1443 16.9274 16.9438 15.0013 19.2543 14.0823C23.6102 12.3499 28.3739 13.718 30.537 15.8128C31.0057 16.2666 31.4038 16.7271 31.7447 17.1847C31.9392 16.1102 31.955 15.04 31.7679 14.005C31.0844 10.226 27.5192 8.08512 24.323 9.191C21.1412 10.2919 19.9002 12.4316 19.9002 12.4316C19.9002 12.4316 18.6592 10.2919 15.4774 9.191C13.6519 8.55927 11.7067 8.9883 10.2462 10.1752C10.9323 11.6442 11.736 13.0168 14.0254 15.7773C15.8868 18.0222 18.1709 19.4052 18.1709 19.4052Z" fill="url(#paint2_linear_5_39)"/>
<path opacity="0.31" d="M28.177 10.5495C25.1712 9.03944 22.069 11.3892 21.0851 12.6299C22.782 12.2725 24.2668 12.0892 26.1457 12.4839C28.9252 13.0679 29.9654 14.0715 31.2064 15.5542C30.9871 12.8069 29.2519 11.0896 28.177 10.5495Z" fill="url(#paint3_linear_5_39)"/>
</g>
<path d="M49.932 27.9V27.46C50.3867 27.4307 50.724 27.372 50.944 27.284C51.164 27.196 51.3107 27.02 51.384 26.756C51.4573 26.492 51.494 26.096 51.494 25.568V14.656C51.494 14.1133 51.4573 13.7173 51.384 13.468C51.3107 13.204 51.1567 13.028 50.922 12.94C50.702 12.8373 50.372 12.7787 49.932 12.764V12.324C50.3867 12.3387 50.966 12.3533 51.67 12.368C52.3887 12.3827 53.1073 12.39 53.826 12.39C54.574 12.39 55.278 12.3827 55.938 12.368C56.598 12.3533 57.126 12.3387 57.522 12.324V12.764C57.082 12.7787 56.7447 12.8373 56.51 12.94C56.29 13.028 56.1433 13.204 56.07 13.468C55.9967 13.7173 55.96 14.1133 55.96 14.656V25.568C55.96 26.096 55.9967 26.492 56.07 26.756C56.158 27.02 56.312 27.196 56.532 27.284C56.752 27.372 57.082 27.4307 57.522 27.46V27.9C57.126 27.8707 56.598 27.856 55.938 27.856C55.278 27.8413 54.574 27.834 53.826 27.834C53.1073 27.834 52.3887 27.8413 51.67 27.856C50.966 27.856 50.3867 27.8707 49.932 27.9ZM40.516 27.9V27.46C40.9707 27.4307 41.308 27.372 41.528 27.284C41.748 27.196 41.8947 27.02 41.968 26.756C42.0413 26.492 42.078 26.096 42.078 25.568V14.656C42.078 14.1133 42.0413 13.7173 41.968 13.468C41.8947 13.204 41.7407 13.028 41.506 12.94C41.286 12.8373 40.956 12.7787 40.516 12.764V12.324C40.9413 12.3387 41.4987 12.3533 42.188 12.368C42.892 12.3827 43.64 12.39 44.432 12.39C45.1213 12.39 45.796 12.3827 46.456 12.368C47.1307 12.3533 47.6807 12.3387 48.106 12.324V12.764C47.666 12.7787 47.3287 12.8373 47.094 12.94C46.874 13.028 46.7273 13.204 46.654 13.468C46.5807 13.7173 46.544 14.1133 46.544 14.656V25.568C46.544 26.096 46.5807 26.492 46.654 26.756C46.742 27.02 46.896 27.196 47.116 27.284C47.336 27.372 47.666 27.4307 48.106 27.46V27.9C47.6807 27.8707 47.1307 27.856 46.456 27.856C45.796 27.8413 45.1213 27.834 44.432 27.834C43.64 27.834 42.892 27.8413 42.188 27.856C41.4987 27.856 40.9413 27.8707 40.516 27.9ZM44.674 20.288V19.848H53.364V20.288H44.674ZM64.4762 16.174C65.7669 16.174 66.7789 16.5553 67.5122 17.318C68.2602 18.066 68.6342 19.3273 68.6342 21.102H61.7482L61.7042 20.684H65.4222C65.4369 19.9653 65.4076 19.3053 65.3342 18.704C65.2609 18.088 65.1436 17.5967 64.9822 17.23C64.8209 16.8633 64.6009 16.68 64.3222 16.68C63.9262 16.68 63.6036 16.9953 63.3542 17.626C63.1049 18.242 62.9436 19.3053 62.8702 20.816L62.9582 20.992C62.9436 21.1387 62.9362 21.2853 62.9362 21.432C62.9362 21.5787 62.9362 21.7327 62.9362 21.894C62.9362 22.9207 63.0609 23.72 63.3102 24.292C63.5742 24.864 63.8969 25.26 64.2782 25.48C64.6742 25.7 65.0702 25.81 65.4662 25.81C65.6716 25.81 65.9136 25.7807 66.1922 25.722C66.4856 25.6633 66.8009 25.5313 67.1382 25.326C67.4756 25.106 67.8056 24.776 68.1282 24.336L68.5022 24.468C68.3262 25.0547 68.0402 25.6413 67.6442 26.228C67.2629 26.8 66.7642 27.2767 66.1482 27.658C65.5322 28.0247 64.7842 28.208 63.9042 28.208C62.9656 28.208 62.1076 28.0173 61.3302 27.636C60.5676 27.2547 59.9589 26.624 59.5042 25.744C59.0496 24.864 58.8222 23.6833 58.8222 22.202C58.8222 20.794 59.0716 19.65 59.5702 18.77C60.0689 17.8753 60.7436 17.2227 61.5942 16.812C62.4596 16.3867 63.4202 16.174 64.4762 16.174ZM72.6367 28.054C71.9473 28.054 71.3827 27.922 70.9427 27.658C70.5027 27.394 70.18 27.0493 69.9747 26.624C69.784 26.1987 69.6887 25.7513 69.6887 25.282C69.6887 24.666 69.828 24.1673 70.1067 23.786C70.3853 23.39 70.7447 23.0747 71.1847 22.84C71.6393 22.5907 72.116 22.3853 72.6147 22.224C73.1133 22.0627 73.5827 21.9087 74.0227 21.762C74.4773 21.6007 74.844 21.4173 75.1227 21.212C75.4013 20.992 75.5407 20.7133 75.5407 20.376V18.418C75.5407 18.1833 75.4967 17.9267 75.4087 17.648C75.3353 17.3693 75.1887 17.1273 74.9687 16.922C74.7487 16.7167 74.4187 16.614 73.9787 16.614C73.744 16.614 73.5167 16.6507 73.2967 16.724C73.0913 16.7827 72.908 16.8707 72.7467 16.988C73.26 17.1787 73.634 17.45 73.8687 17.802C74.1033 18.1393 74.2207 18.5133 74.2207 18.924C74.2207 19.5107 74.0153 19.9727 73.6047 20.31C73.194 20.6473 72.71 20.816 72.1527 20.816C71.566 20.816 71.1113 20.6327 70.7887 20.266C70.466 19.8993 70.3047 19.4447 70.3047 18.902C70.3047 18.4473 70.4147 18.066 70.6347 17.758C70.8693 17.4353 71.214 17.142 71.6687 16.878C72.1087 16.6287 72.6367 16.4527 73.2527 16.35C73.8687 16.2327 74.514 16.174 75.1887 16.174C75.9073 16.174 76.5747 16.2473 77.1907 16.394C77.8067 16.526 78.3347 16.8193 78.7747 17.274C79.0827 17.5967 79.2807 18 79.3687 18.484C79.4567 18.968 79.5007 19.5913 79.5007 20.354V26.25C79.5007 26.6167 79.5227 26.866 79.5667 26.998C79.6253 27.13 79.7207 27.196 79.8527 27.196C79.97 27.196 80.08 27.1593 80.1827 27.086C80.3 27.0127 80.41 26.9393 80.5127 26.866L80.7327 27.24C80.41 27.5187 80.0067 27.724 79.5227 27.856C79.0533 27.988 78.5547 28.054 78.0267 28.054C77.396 28.054 76.9047 27.9807 76.5527 27.834C76.2153 27.6727 75.9733 27.4673 75.8267 27.218C75.6947 26.954 75.6213 26.6753 75.6067 26.382C75.2987 26.866 74.91 27.2693 74.4407 27.592C73.986 27.9 73.3847 28.054 72.6367 28.054ZM74.7267 26.294C74.888 26.294 75.0273 26.272 75.1447 26.228C75.2767 26.1693 75.4087 26.0667 75.5407 25.92V21.278C75.438 21.4687 75.2987 21.6593 75.1227 21.85C74.9613 22.026 74.7927 22.2093 74.6167 22.4C74.4407 22.5907 74.272 22.796 74.1107 23.016C73.964 23.236 73.8393 23.4927 73.7367 23.786C73.6487 24.0647 73.6047 24.3947 73.6047 24.776C73.6047 25.3333 73.7073 25.7293 73.9127 25.964C74.1327 26.184 74.404 26.294 74.7267 26.294ZM86.4802 10.696V25.854C86.4802 26.47 86.5682 26.888 86.7442 27.108C86.9348 27.328 87.2575 27.438 87.7122 27.438V27.9C87.4188 27.8853 86.9788 27.8707 86.3922 27.856C85.8055 27.8267 85.2042 27.812 84.5882 27.812C83.9722 27.812 83.3488 27.8267 82.7182 27.856C82.0875 27.8707 81.6108 27.8853 81.2882 27.9V27.438C81.7428 27.438 82.0582 27.328 82.2342 27.108C82.4248 26.888 82.5202 26.47 82.5202 25.854V13.336C82.5202 12.676 82.4322 12.192 82.2562 11.884C82.0802 11.5613 81.7575 11.4 81.2882 11.4V10.938C81.7575 10.982 82.2122 11.004 82.6522 11.004C83.3855 11.004 84.0675 10.982 84.6982 10.938C85.3435 10.8793 85.9375 10.7987 86.4802 10.696ZM93.6549 12.918V16.482H95.8109V16.922H93.6549V26.052C93.6549 26.3307 93.7063 26.536 93.8089 26.668C93.9116 26.7853 94.0803 26.844 94.3149 26.844C94.4763 26.844 94.6669 26.8 94.8869 26.712C95.1069 26.6093 95.3123 26.4407 95.5029 26.206L95.8329 26.47C95.5249 26.998 95.1143 27.4233 94.6009 27.746C94.1023 28.054 93.4716 28.208 92.7089 28.208C92.2249 28.208 91.7849 28.142 91.3889 28.01C91.0076 27.8927 90.6923 27.7093 90.4429 27.46C90.1203 27.1373 89.9149 26.7413 89.8269 26.272C89.7389 25.788 89.6949 25.1647 89.6949 24.402V16.922H88.0229V16.482H89.6949V13.886C90.4723 13.886 91.1763 13.8127 91.8069 13.666C92.4523 13.5047 93.0683 13.2553 93.6549 12.918ZM101.39 10.696V17.824C101.742 17.2373 102.212 16.8193 102.798 16.57C103.4 16.306 104.096 16.174 104.888 16.174C105.563 16.174 106.091 16.262 106.472 16.438C106.868 16.5993 107.169 16.8047 107.374 17.054C107.594 17.318 107.756 17.67 107.858 18.11C107.961 18.55 108.012 19.144 108.012 19.892V25.854C108.012 26.47 108.1 26.888 108.276 27.108C108.467 27.328 108.79 27.438 109.244 27.438V27.9C108.951 27.8853 108.504 27.8707 107.902 27.856C107.316 27.8267 106.736 27.812 106.164 27.812C105.548 27.812 104.947 27.8267 104.36 27.856C103.774 27.8707 103.334 27.8853 103.04 27.9V27.438C103.422 27.438 103.686 27.328 103.832 27.108C103.979 26.888 104.052 26.47 104.052 25.854V18.704C104.052 18.396 104.016 18.1393 103.942 17.934C103.869 17.7287 103.752 17.5747 103.59 17.472C103.444 17.3693 103.238 17.318 102.974 17.318C102.71 17.318 102.454 17.384 102.204 17.516C101.97 17.648 101.772 17.8387 101.61 18.088C101.464 18.3227 101.39 18.594 101.39 18.902V25.854C101.39 26.47 101.464 26.888 101.61 27.108C101.772 27.328 102.036 27.438 102.402 27.438V27.9C102.124 27.8853 101.713 27.8707 101.17 27.856C100.628 27.8267 100.07 27.812 99.4983 27.812C98.8823 27.812 98.259 27.8267 97.6283 27.856C96.9977 27.8707 96.521 27.8853 96.1983 27.9V27.438C96.653 27.438 96.9683 27.328 97.1443 27.108C97.335 26.888 97.4303 26.47 97.4303 25.854V13.336C97.4303 12.676 97.3423 12.192 97.1663 11.884C96.9903 11.5613 96.6677 11.4 96.1983 11.4V10.938C96.6677 10.982 97.1223 11.004 97.5623 11.004C98.2957 11.004 98.9777 10.982 99.6083 10.938C100.254 10.8793 100.848 10.7987 101.39 10.696ZM118.596 12.016C119.564 12.016 120.356 12.1627 120.972 12.456C121.603 12.7347 122.16 13.0647 122.644 13.446C122.937 13.666 123.157 13.6953 123.304 13.534C123.465 13.358 123.575 12.9547 123.634 12.324H124.14C124.111 12.9107 124.089 13.6293 124.074 14.48C124.059 15.316 124.052 16.4307 124.052 17.824H123.546C123.487 17.12 123.392 16.4967 123.26 15.954C123.128 15.3967 122.93 14.9053 122.666 14.48C122.402 14.0547 122.021 13.6807 121.522 13.358C121.214 13.1527 120.884 12.9913 120.532 12.874C120.195 12.7567 119.843 12.698 119.476 12.698C118.64 12.698 117.951 12.9327 117.408 13.402C116.865 13.8567 116.44 14.458 116.132 15.206C115.839 15.9393 115.633 16.746 115.516 17.626C115.399 18.4913 115.34 19.3347 115.34 20.156C115.34 20.9773 115.399 21.828 115.516 22.708C115.633 23.5733 115.839 24.38 116.132 25.128C116.44 25.8613 116.865 26.4627 117.408 26.932C117.951 27.3867 118.64 27.614 119.476 27.614C119.843 27.614 120.195 27.5553 120.532 27.438C120.884 27.306 121.214 27.1447 121.522 26.954C122.255 26.4993 122.747 25.8907 122.996 25.128C123.26 24.3653 123.443 23.3827 123.546 22.18H124.052C124.052 23.6173 124.059 24.7833 124.074 25.678C124.089 26.558 124.111 27.2987 124.14 27.9H123.634C123.575 27.2693 123.473 26.8733 123.326 26.712C123.194 26.5507 122.967 26.5727 122.644 26.778C122.101 27.1593 121.522 27.4967 120.906 27.79C120.305 28.0687 119.527 28.208 118.574 28.208C116.917 28.208 115.465 27.8927 114.218 27.262C112.971 26.6313 112.003 25.722 111.314 24.534C110.625 23.346 110.28 21.916 110.28 20.244C110.28 18.6013 110.632 17.164 111.336 15.932C112.055 14.7 113.037 13.7393 114.284 13.05C115.531 12.3607 116.968 12.016 118.596 12.016ZM128.689 28.054C128 28.054 127.435 27.922 126.995 27.658C126.555 27.394 126.233 27.0493 126.027 26.624C125.837 26.1987 125.741 25.7513 125.741 25.282C125.741 24.666 125.881 24.1673 126.159 23.786C126.438 23.39 126.797 23.0747 127.237 22.84C127.692 22.5907 128.169 22.3853 128.667 22.224C129.166 22.0627 129.635 21.9087 130.075 21.762C130.53 21.6007 130.897 21.4173 131.175 21.212C131.454 20.992 131.593 20.7133 131.593 20.376V18.418C131.593 18.1833 131.549 17.9267 131.461 17.648C131.388 17.3693 131.241 17.1273 131.021 16.922C130.801 16.7167 130.471 16.614 130.031 16.614C129.797 16.614 129.569 16.6507 129.349 16.724C129.144 16.7827 128.961 16.8707 128.799 16.988C129.313 17.1787 129.687 17.45 129.921 17.802C130.156 18.1393 130.273 18.5133 130.273 18.924C130.273 19.5107 130.068 19.9727 129.657 20.31C129.247 20.6473 128.763 20.816 128.205 20.816C127.619 20.816 127.164 20.6327 126.841 20.266C126.519 19.8993 126.357 19.4447 126.357 18.902C126.357 18.4473 126.467 18.066 126.687 17.758C126.922 17.4353 127.267 17.142 127.721 16.878C128.161 16.6287 128.689 16.4527 129.305 16.35C129.921 16.2327 130.567 16.174 131.241 16.174C131.96 16.174 132.627 16.2473 133.243 16.394C133.859 16.526 134.387 16.8193 134.827 17.274C135.135 17.5967 135.333 18 135.421 18.484C135.509 18.968 135.553 19.5913 135.553 20.354V26.25C135.553 26.6167 135.575 26.866 135.619 26.998C135.678 27.13 135.773 27.196 135.905 27.196C136.023 27.196 136.133 27.1593 136.235 27.086C136.353 27.0127 136.463 26.9393 136.565 26.866L136.785 27.24C136.463 27.5187 136.059 27.724 135.575 27.856C135.106 27.988 134.607 28.054 134.079 28.054C133.449 28.054 132.957 27.9807 132.605 27.834C132.268 27.6727 132.026 27.4673 131.879 27.218C131.747 26.954 131.674 26.6753 131.659 26.382C131.351 26.866 130.963 27.2693 130.493 27.592C130.039 27.9 129.437 28.054 128.689 28.054ZM130.779 26.294C130.941 26.294 131.08 26.272 131.197 26.228C131.329 26.1693 131.461 26.0667 131.593 25.92V21.278C131.491 21.4687 131.351 21.6593 131.175 21.85C131.014 22.026 130.845 22.2093 130.669 22.4C130.493 22.5907 130.325 22.796 130.163 23.016C130.017 23.236 129.892 23.4927 129.789 23.786C129.701 24.0647 129.657 24.3947 129.657 24.776C129.657 25.3333 129.76 25.7293 129.965 25.964C130.185 26.184 130.457 26.294 130.779 26.294ZM145.437 16.174C145.965 16.174 146.376 16.2913 146.669 16.526C146.962 16.746 147.168 17.032 147.285 17.384C147.402 17.7213 147.461 18.0587 147.461 18.396C147.461 19.056 147.27 19.584 146.889 19.98C146.522 20.3613 146.038 20.552 145.437 20.552C144.792 20.552 144.3 20.4053 143.963 20.112C143.64 19.8187 143.479 19.4373 143.479 18.968C143.479 18.4693 143.582 18.0587 143.787 17.736C144.007 17.4133 144.278 17.142 144.601 16.922C144.337 16.922 144.102 16.9733 143.897 17.076C143.721 17.1493 143.552 17.252 143.391 17.384C143.23 17.516 143.09 17.67 142.973 17.846C142.856 18.0073 142.76 18.1907 142.687 18.396C142.628 18.6013 142.599 18.814 142.599 19.034V25.634C142.599 26.338 142.746 26.8147 143.039 27.064C143.332 27.3133 143.816 27.438 144.491 27.438V27.9C144.154 27.8853 143.648 27.8707 142.973 27.856C142.313 27.8267 141.631 27.812 140.927 27.812C140.267 27.812 139.6 27.8267 138.925 27.856C138.25 27.8707 137.744 27.8853 137.407 27.9V27.438C137.862 27.438 138.177 27.328 138.353 27.108C138.544 26.888 138.639 26.47 138.639 25.854V18.88C138.639 18.22 138.551 17.736 138.375 17.428C138.199 17.1053 137.876 16.944 137.407 16.944V16.482C137.876 16.526 138.331 16.548 138.771 16.548C139.504 16.548 140.186 16.526 140.817 16.482C141.462 16.4233 142.056 16.3427 142.599 16.24V17.824C142.79 17.4427 143.024 17.1347 143.303 16.9C143.582 16.6507 143.897 16.4673 144.249 16.35C144.616 16.2327 145.012 16.174 145.437 16.174ZM153.873 16.174C155.163 16.174 156.175 16.5553 156.909 17.318C157.657 18.066 158.031 19.3273 158.031 21.102H151.145L151.101 20.684H154.819C154.833 19.9653 154.804 19.3053 154.731 18.704C154.657 18.088 154.54 17.5967 154.379 17.23C154.217 16.8633 153.997 16.68 153.719 16.68C153.323 16.68 153 16.9953 152.751 17.626C152.501 18.242 152.34 19.3053 152.267 20.816L152.355 20.992C152.34 21.1387 152.333 21.2853 152.333 21.432C152.333 21.5787 152.333 21.7327 152.333 21.894C152.333 22.9207 152.457 23.72 152.707 24.292C152.971 24.864 153.293 25.26 153.675 25.48C154.071 25.7 154.467 25.81 154.863 25.81C155.068 25.81 155.31 25.7807 155.589 25.722C155.882 25.6633 156.197 25.5313 156.535 25.326C156.872 25.106 157.202 24.776 157.525 24.336L157.899 24.468C157.723 25.0547 157.437 25.6413 157.041 26.228C156.659 26.8 156.161 27.2767 155.545 27.658C154.929 28.0247 154.181 28.208 153.301 28.208C152.362 28.208 151.504 28.0173 150.727 27.636C149.964 27.2547 149.355 26.624 148.901 25.744C148.446 24.864 148.219 23.6833 148.219 22.202C148.219 20.794 148.468 19.65 148.967 18.77C149.465 17.8753 150.14 17.2227 150.991 16.812C151.856 16.3867 152.817 16.174 153.873 16.174Z" fill="white"/>
<defs>
<filter id="filter0_dd_5_39" x="0.899994" y="0.899994" width="38" height="38" filterUnits="userSpaceOnUse" color-interpolation-filters="sRGB">
<feFlood flood-opacity="0" result="BackgroundImageFix"/>
<feColorMatrix in="SourceAlpha" type="matrix" values="0 0 0 0 0 0 0 0 0 0 0 0 0 0 0 0 0 0 127 0" result="hardAlpha"/>
<feOffset dy="1"/>
<feGaussianBlur stdDeviation="1"/>
<feColorMatrix type="matrix" values="0 0 0 0 0.0627451 0 0 0 0 0.0941176 0 0 0 0 0.156863 0 0 0 0.06 0"/>
<feBlend mode="normal" in2="BackgroundImageFix" result="effect1_dropShadow_5_39"/>
<feColorMatrix in="SourceAlpha" type="matrix" values="0 0 0 0 0 0 0 0 0 0 0 0 0 0 0 0 0 0 127 0" result="hardAlpha"/>
<feOffset dy="1"/>
<feGaussianBlur stdDeviation="1.5"/>
<feColorMatrix type="matrix" values="0 0 0 0 0.0627451 0 0 0 0 0.0941176 0 0 0 0 0.156863 0 0 0 0.1 0"/>
<feBlend mode="normal" in2="effect1_dropShadow_5_39" result="effect2_dropShadow_5_39"/>
<feBlend mode="normal" in="SourceGraphic" in2="effect2_dropShadow_5_39" result="shape"/>
</filter>
<linearGradient id="paint0_linear_5_39" x1="19.9" y1="2.9" x2="19.9" y2="34.9" gradientUnits="userSpaceOnUse">
<stop stop-color="white"/>
<stop offset="1" stop-color="#D0D5DD"/>
</linearGradient>
<linearGradient id="paint1_linear_5_39" x1="11.0989" y1="25.1137" x2="28.7347" y2="7.4779" gradientUnits="userSpaceOnUse">
<stop stop-color="#0076C1"/>
<stop offset="0.0737" stop-color="#0B82C6"/>
<stop offset="0.2766" stop-color="#269ED3"/>
<stop offset="0.4546" stop-color="#36AFDA"/>
<stop offset="0.587" stop-color="#3CB5DD"/>
</linearGradient>
<linearGradient id="paint2_linear_5_39" x1="11.0388" y1="25.1537" x2="28.7274" y2="7.46508" gradientUnits="userSpaceOnUse">
<stop stop-color="#00A482"/>
<stop offset="1" stop-color="#79DD83"/>
</linearGradient>
<linearGradient id="paint3_linear_5_39" x1="25.7608" y1="14.4073" x2="29.4288" y2="11.0132" gradientUnits="userSpaceOnUse">
<stop stop-color="#00A482"/>
<stop offset="1" stop-color="#79DD83"/>
</linearGradient>
</defs>
</svg>
